<svg width="30" height="32" viewBox="0 0 30 32" fill="none" xmlns="http://www.w3.org/2000/svg">
<path d="M22.343 0.0160139C22.2645 -0.0599857 19.4376 0.0460138 16.9776 2.36C14.5176 4.67199 14.896 7.32398 14.9514 7.39198C15.0068 7.45998 18.4591 7.56598 20.663 4.87599C22.8668 2.186 22.4214 0.0940135 22.343 0.0160139ZM29.9907 23.4819C29.8799 23.2899 24.6253 21.0139 25.1145 16.6379C25.6037 12.26 28.9799 11.06 29.033 10.93C29.0861 10.8 27.6553 9.34997 26.1391 8.61597C25.0259 8.09848 23.7939 7.80199 22.5322 7.74797C22.283 7.74197 21.4176 7.55798 19.6383 7.97997C18.466 8.25797 15.8237 9.15797 15.0968 9.19397C14.3676 9.22997 12.1983 8.14997 9.86524 7.86397C8.37216 7.61397 6.78908 8.12597 5.656 8.51997C4.52522 8.91197 2.37445 10.028 0.869831 12.9939C-0.634788 15.9579 0.152137 20.6539 0.715215 22.1139C1.27829 23.5719 2.15753 25.9619 3.65291 27.7059C4.98215 29.6739 6.74523 31.0399 7.48139 31.5039C8.21754 31.9678 10.2945 32.2758 11.7345 31.6379C12.8929 31.0219 14.9837 30.6679 15.8099 30.6939C16.6337 30.7199 18.2583 31.0019 19.9222 31.7719C21.2399 32.1658 22.486 32.0019 23.7345 31.5619C24.983 31.1199 26.7899 29.4439 28.8991 26.0459C29.6999 24.4659 30.0645 23.6119 29.9907 23.4819Z" fill="white"/>
</svg>
