<svg width="20" height="20" viewBox="0 0 20 20" fill="none" xmlns="http://www.w3.org/2000/svg">
<path d="M5.14331 10.044C5.14331 9.07333 5.34398 8.21 5.74531 7.454C6.15598 6.68867 6.73465 6.096 7.48131 5.676C8.22798 5.24667 9.08665 5.032 10.0573 5.032C11.2893 5.032 12.3253 5.36333 13.1653 6.026C14.0053 6.67933 14.5466 7.57067 14.7893 8.7H11.8353C11.658 8.32667 11.4106 8.042 11.0933 7.846C10.7853 7.65 10.426 7.552 10.0153 7.552C9.38065 7.552 8.87198 7.78067 8.48931 8.238C8.11598 8.686 7.92931 9.288 7.92931 10.044C7.92931 10.8093 8.11598 11.4207 8.48931 11.878C8.87198 12.326 9.38065 12.55 10.0153 12.55C10.426 12.55 10.7853 12.452 11.0933 12.256C11.4106 12.06 11.658 11.7753 11.8353 11.402H14.7893C14.5466 12.5313 14.0053 13.4273 13.1653 14.09C12.3253 14.7433 11.2893 15.07 10.0573 15.07C9.08665 15.07 8.22798 14.86 7.48131 14.44C6.73465 14.0107 6.15598 13.418 5.74531 12.662C5.34398 11.8967 5.14331 11.024 5.14331 10.044Z" fill="white"/>
<circle cx="10" cy="10" r="9.5" stroke="white"/>
</svg>
