<svg width="30" height="32" viewBox="0 0 30 32" fill="none" xmlns="http://www.w3.org/2000/svg">
<path d="M0 1.96376V30.0348C0.000189873 30.0957 0.0185293 30.1552 0.0527188 30.2058C0.0869082 30.2564 0.135426 30.2959 0.192187 30.3194C0.248949 30.3428 0.311427 30.3491 0.371789 30.3375C0.43215 30.3259 0.487707 30.2969 0.531493 30.2541L15.2886 16L0.531493 1.74448C0.487707 1.70172 0.43215 1.67271 0.371789 1.6611C0.311427 1.64949 0.248949 1.65579 0.192187 1.67921C0.135426 1.70263 0.0869082 1.74213 0.0527188 1.79275C0.0185293 1.84337 0.000189873 1.90286 0 1.96376ZM21.4761 10.1429L2.97261 0.0459266L2.96108 0.0394982C2.64232 -0.131928 2.33944 0.295209 2.6005 0.543777L17.1052 14.2807L21.4761 10.1429ZM2.60194 31.4562C2.33944 31.7048 2.64232 32.1319 2.96252 31.9605L2.97406 31.9541L21.4761 21.8571L17.1052 17.7178L2.60194 31.4562ZM28.9458 14.2143L23.7787 11.3958L18.9203 16L23.7787 20.6021L28.9458 17.7857C30.3514 17.0164 30.3514 14.9836 28.9458 14.2143Z" fill="white"/>
</svg>
