<svg width="32" height="33" viewBox="0 0 32 33" fill="none" xmlns="http://www.w3.org/2000/svg">
<path d="M31.6888 12.9807H30.4V12.9144H16V19.303H25.0424C23.7232 23.022 20.1784 25.6916 16 25.6916C10.6984 25.6916 6.4 21.4009 6.4 16.1087C6.4 10.8166 10.6984 6.52583 16 6.52583C18.4472 6.52583 20.6736 7.44738 22.3688 8.95269L26.8944 4.43516C24.0368 1.77671 20.2144 0.137238 16 0.137238C7.164 0.137238 0 7.28846 0 16.1087C0 24.929 7.164 32.0802 16 32.0802C24.836 32.0802 32 24.929 32 16.1087C32 15.0378 31.8896 13.9925 31.6888 12.9807Z" fill="#FFC107"/>
<path d="M1.84485 8.67479L7.10165 12.5231C8.52405 9.00779 11.9688 6.52583 16 6.52583C18.4472 6.52583 20.6736 7.44738 22.3688 8.95269L26.8944 4.43516C24.0368 1.77671 20.2144 0.137238 16 0.137238C9.85445 0.137238 4.52485 3.60065 1.84485 8.67479Z" fill="#FF3D00"/>
<path d="M16 32.0802C20.1328 32.0802 23.888 30.5014 26.7272 27.934L21.7752 23.7511C20.1148 25.0116 18.0859 25.6933 16 25.6916C11.8384 25.6916 8.30478 23.0428 6.97358 19.3462L1.75598 23.359C4.40398 28.5314 9.78158 32.0802 16 32.0802Z" fill="#4CAF50"/>
<path d="M31.6888 12.9807H30.4V12.9144H16V19.303H25.0424C24.4114 21.073 23.2747 22.6196 21.7728 23.7519L21.7752 23.7503L26.7272 27.9332C26.3768 28.251 32 24.0945 32 16.1087C32 15.0378 31.8896 13.9925 31.6888 12.9807Z" fill="#1976D2"/>
</svg>
