<svg width="19" height="19" viewBox="0 0 19 19" fill="none" xmlns="http://www.w3.org/2000/svg">
<path d="M11.2814 18.8063H7.8493C7.63426 18.8063 7.42567 18.7354 7.25812 18.6054C7.09057 18.4753 6.97412 18.2939 6.92811 18.0912L6.54435 16.3772C6.03242 16.1608 5.547 15.8902 5.09702 15.5703L3.36494 16.1025C3.15992 16.1656 2.93871 16.1591 2.73804 16.0841C2.53736 16.0092 2.3693 15.8702 2.26177 15.6904L0.541944 12.8238C0.435535 12.6438 0.395592 12.4342 0.428649 12.2295C0.461707 12.0247 0.565808 11.8369 0.723921 11.6966L2.06753 10.5139C2.00643 9.97819 2.00643 9.43759 2.06753 8.90185L0.723921 7.72191C0.565584 7.5816 0.461341 7.39356 0.428279 7.1886C0.395216 6.98364 0.435294 6.77393 0.541944 6.59383L2.258 3.72539C2.36553 3.54555 2.53359 3.40661 2.73427 3.33164C2.93494 3.25668 3.15615 3.2502 3.36117 3.31328L5.09325 3.84548C5.32332 3.68172 5.56281 3.52889 5.80984 3.39061C6.04839 3.26142 6.29354 3.14406 6.54435 3.03944L6.92905 1.3273C6.97485 1.12461 7.09107 0.943102 7.25844 0.812882C7.42582 0.682661 7.63429 0.611546 7.8493 0.611328H11.2814C11.4964 0.611546 11.7049 0.682661 11.8723 0.812882C12.0396 0.943102 12.1559 1.12461 12.2017 1.3273L12.5901 3.04035C13.1014 3.25803 13.5867 3.52859 14.0375 3.8473L15.7705 3.3151C15.9754 3.25225 16.1964 3.25885 16.3968 3.3338C16.5973 3.40876 16.7652 3.54756 16.8727 3.72721L18.5888 6.59565C18.8075 6.96591 18.7321 7.43443 18.4068 7.72282L17.0632 8.90549C17.1243 9.44123 17.1243 9.98183 17.0632 10.5176L18.4068 11.7002C18.7321 11.9895 18.8075 12.4571 18.5888 12.8274L16.8727 15.6958C16.7652 15.8757 16.5971 16.0146 16.3964 16.0896C16.1958 16.1646 15.9746 16.171 15.7695 16.108L14.0375 15.5758C13.5878 15.8954 13.1027 16.1657 12.5911 16.3818L12.2017 18.0912C12.1557 18.2937 12.0394 18.475 11.872 18.6051C11.7047 18.7351 11.4963 18.8061 11.2814 18.8063V18.8063ZM9.56158 6.06981C8.56131 6.06981 7.602 6.4532 6.8947 7.13565C6.1874 7.81809 5.79004 8.74368 5.79004 9.7088C5.79004 10.6739 6.1874 11.5995 6.8947 12.282C7.602 12.9644 8.56131 13.3478 9.56158 13.3478C10.5619 13.3478 11.5212 12.9644 12.2285 12.282C12.9358 11.5995 13.3331 10.6739 13.3331 9.7088C13.3331 8.74368 12.9358 7.81809 12.2285 7.13565C11.5212 6.4532 10.5619 6.06981 9.56158 6.06981V6.06981Z" fill="white"/>
</svg>
