<svg width="16" height="12" viewBox="0 0 16 12" fill="none" xmlns="http://www.w3.org/2000/svg">
<path d="M6.88036 0.251868C7.23042 0.0860267 7.61295 0 8.0003 0C8.38766 0 8.77018 0.0860267 9.12024 0.251868L15.6186 3.33037C15.7318 3.38394 15.8276 3.46833 15.895 3.57385C15.9625 3.67937 15.9989 3.80176 16 3.92699C16.0011 4.05223 15.9669 4.17524 15.9013 4.28194C15.8358 4.38865 15.7414 4.47472 15.6292 4.5303L9.16291 7.73813C8.80157 7.9174 8.40367 8.01068 8.0003 8.01068C7.59694 8.01068 7.19904 7.9174 6.8377 7.73813L1.334 5.00761V7.99944C1.334 8.17625 1.26377 8.34581 1.13875 8.47082C1.01373 8.59584 0.844171 8.66608 0.667369 8.66608C0.490568 8.66608 0.321008 8.59584 0.195991 8.47082C0.0709732 8.34581 0.00073915 8.17625 0.00073915 7.99944V3.96633C-0.0054587 3.83455 0.0274302 3.70387 0.0952736 3.59072C0.163117 3.47756 0.262888 3.38699 0.382052 3.33037L6.88036 0.250534V0.251868ZM2.66726 7.15816V9.33271C2.66728 9.4204 2.6846 9.50723 2.71823 9.58822C2.75186 9.66921 2.80114 9.74277 2.86325 9.80468L2.86592 9.80868L2.89658 9.83668L2.97658 9.91134C3.39441 10.2837 3.84612 10.6163 4.32584 10.9046C5.21645 11.4393 6.50305 11.9992 8.0003 11.9992C9.49755 11.9992 10.7841 11.4393 11.6761 10.9046C12.1558 10.6163 12.6075 10.2837 13.0254 9.91134L13.1054 9.83668L13.1267 9.81535L13.1347 9.80735L13.136 9.80601L13.1387 9.80468C13.2006 9.74266 13.2496 9.66905 13.283 9.58807C13.3164 9.50708 13.3335 9.42031 13.3333 9.33271V7.15682L9.75487 8.93273C9.20952 9.20318 8.60903 9.34391 8.0003 9.34391C7.39157 9.34391 6.79108 9.20318 6.24573 8.93273L2.66726 7.15682V7.15816Z" fill="#D0D2D3"/>
</svg>
