<svg width="20" height="12" viewBox="0 0 20 12" fill="none" xmlns="http://www.w3.org/2000/svg">
<path d="M0.440231 0.458879C0.722196 0.165059 1.10457 0 1.50327 0C1.90197 0 2.28434 0.165059 2.56631 0.458879L10.0091 8.21692L17.4518 0.458879C17.7354 0.173386 18.1152 0.0154122 18.5095 0.0189831C18.9037 0.022554 19.2808 0.187384 19.5596 0.47797C19.8384 0.768557 19.9965 1.16165 19.9999 1.57259C20.0034 1.98352 19.8518 2.37942 19.5779 2.67501L11.0721 11.5411C10.7902 11.8349 10.4078 12 10.0091 12C9.61038 12 9.228 11.8349 8.94604 11.5411L0.440231 2.67501C0.158351 2.3811 0 1.98253 0 1.56695C0 1.15136 0.158351 0.752787 0.440231 0.458879Z" fill="white"/>
</svg>
