<svg width="14" height="18" viewBox="0 0 14 18" fill="none" xmlns="http://www.w3.org/2000/svg">
<path d="M7 0C4.58763 0 2.625 2.0187 2.625 4.5V7.2H1.75C1.28587 7.2 0.840752 7.38964 0.512563 7.72721C0.184374 8.06477 0 8.52261 0 9V16.2C0 16.6774 0.184374 17.1352 0.512563 17.4728C0.840752 17.8104 1.28587 18 1.75 18H12.25C12.7141 18 13.1592 17.8104 13.4874 17.4728C13.8156 17.1352 14 16.6774 14 16.2V9C14 8.52261 13.8156 8.06477 13.4874 7.72721C13.1592 7.38964 12.7141 7.2 12.25 7.2H11.375V4.5C11.375 2.0187 9.41237 0 7 0ZM4.375 4.5C4.375 3.0114 5.55275 1.8 7 1.8C8.44725 1.8 9.625 3.0114 9.625 4.5V7.2H4.375V4.5ZM7.875 14.1507V16.2H6.125V14.1507C5.81909 13.9705 5.57345 13.6992 5.42048 13.3725C5.2675 13.0458 5.21437 12.6792 5.2681 12.3208C5.32182 11.9624 5.47988 11.6292 5.72142 11.3651C5.96296 11.101 6.27665 10.9184 6.62113 10.8414C6.87699 10.7832 7.14229 10.7848 7.39746 10.8462C7.65264 10.9075 7.89118 11.0269 8.09549 11.1957C8.2998 11.3645 8.46467 11.5783 8.57795 11.8213C8.69123 12.0644 8.75002 12.3305 8.75 12.6C8.7495 12.9148 8.66835 13.2238 8.51474 13.4961C8.36112 13.7683 8.14047 13.9941 7.875 14.1507V14.1507Z" fill="white"/>
</svg>
