<svg width="10" height="10" viewBox="0 0 10 10" fill="none" xmlns="http://www.w3.org/2000/svg">
<path d="M9.58195 4.31845L1.07689 0.0701795C0.962155 0.0170737 0.835944 -0.00652017 0.709748 0.00154564C0.583552 0.00961145 0.461379 0.0490808 0.354351 0.116361C0.247323 0.183641 0.158839 0.276595 0.0969545 0.38676C0.0350696 0.496926 0.00174892 0.620806 2.57171e-05 0.747121V9.23999C-0.00104579 9.36966 0.031383 9.4974 0.0941778 9.61089C0.156973 9.72437 0.24801 9.81975 0.35849 9.88781C0.468971 9.95588 0.595158 9.99432 0.724856 9.99942C0.854553 10.0045 0.983375 9.97611 1.09887 9.91694L9.58195 5.66867C9.70761 5.60565 9.81325 5.50897 9.88708 5.38943C9.9609 5.26989 10 5.13219 10 4.99173C10 4.85126 9.9609 4.71357 9.88708 4.59403C9.81325 4.47448 9.70761 4.3778 9.58195 4.31479V4.31845Z" fill="#D0D2D3"/>
</svg>
