<svg width="19" height="19" viewBox="0 0 19 19" fill="none" xmlns="http://www.w3.org/2000/svg">
<path d="M17.5313 7.85739L1.9703 0.127691C1.76037 0.0310655 1.52946 -0.0118634 1.29856 0.00281228C1.06767 0.017488 0.844146 0.0893023 0.648326 0.211718C0.452506 0.334133 0.290615 0.503262 0.177389 0.703709C0.0641638 0.904155 0.00319985 1.12955 4.70523e-05 1.35938V16.8121C-0.0019134 17.048 0.0574188 17.2805 0.172309 17.487C0.2872 17.6934 0.453763 17.867 0.655899 17.9908C0.858036 18.1147 1.08891 18.1846 1.32621 18.1939C1.5635 18.2032 1.7992 18.1515 2.01051 18.0438L17.5313 10.3141C17.7612 10.1995 17.9545 10.0235 18.0895 9.80604C18.2246 9.58853 18.2961 9.33799 18.2961 9.08242C18.2961 8.82685 18.2246 8.57631 18.0895 8.3588C17.9545 8.1413 17.7612 7.96539 17.5313 7.85073V7.85739Z" fill="white"/>
</svg>
