<svg width="22" height="19" viewBox="0 0 22 19" fill="none" xmlns="http://www.w3.org/2000/svg">
<path d="M12.1268 0.611474C11.9717 0.617679 11.8236 0.679933 11.7085 0.787342L6.12161 5.57822C6.0304 5.67164 5.91985 5.74254 5.79826 5.7856C5.67667 5.82866 5.5472 5.84277 5.41957 5.82686H1.81969C1.70285 5.82605 1.58702 5.84919 1.47893 5.89492C1.37084 5.94066 1.27263 6.00808 1.19001 6.09327C1.1074 6.17847 1.04202 6.27973 0.997665 6.3912C0.953315 6.50266 0.930879 6.6221 0.93166 6.74258V12.6751C0.931074 12.7954 0.953654 12.9147 0.998092 13.026C1.04253 13.1373 1.10794 13.2384 1.19054 13.3234C1.27314 13.4084 1.37128 13.4757 1.47927 13.5214C1.58727 13.567 1.70298 13.5901 1.81969 13.5893H5.4159C5.54353 13.5734 5.67299 13.5875 5.79458 13.6305C5.91617 13.6736 6.02672 13.7445 6.11794 13.8379L11.7049 18.6288C12.0879 18.957 12.4995 18.7986 12.4995 18.4097V1.00718C12.5024 0.955403 12.4948 0.903579 12.4772 0.854987C12.4597 0.806396 12.4325 0.762097 12.3975 0.724897C12.3624 0.687698 12.3203 0.658407 12.2737 0.638883C12.2271 0.619358 12.1771 0.610025 12.1268 0.611474ZM19.3097 2.35499L17.9931 3.71417C19.1047 5.50735 19.6955 7.59117 19.6955 9.71944C19.6955 11.8477 19.1047 13.9315 17.9931 15.7247L19.3053 17.071C20.7439 14.9042 21.514 12.3397 21.5148 9.71371C21.5156 7.08771 20.747 4.52274 19.3097 2.35499ZM16.1244 5.63204L14.8291 6.97909C15.4042 7.77064 15.715 8.73305 15.715 9.7221C15.715 10.7111 15.4042 11.6736 14.8291 12.4651L16.12 13.7962C17.0282 12.6424 17.5245 11.2019 17.5258 9.71586C17.5271 8.2298 17.0334 6.78837 16.1273 5.6328L16.1244 5.63204Z" fill="white"/>
</svg>
