<svg width="176" height="192" viewBox="0 0 176 192" fill="none" xmlns="http://www.w3.org/2000/svg">
<path d="M176 16V176C176 180.243 174.314 184.313 171.314 187.314C168.313 190.314 164.243 192 160 192H120C115.757 192 111.687 190.314 108.686 187.314C105.686 184.313 104 180.243 104 176V16C104 11.7565 105.686 7.68687 108.686 4.68629C111.687 1.68571 115.757 0 120 0H160C164.243 0 168.313 1.68571 171.314 4.68629C174.314 7.68687 176 11.7565 176 16ZM56 0H16C11.7565 0 7.68687 1.68571 4.68629 4.68629C1.68571 7.68687 0 11.7565 0 16V176C0 180.243 1.68571 184.313 4.68629 187.314C7.68687 190.314 11.7565 192 16 192H56C60.2435 192 64.3131 190.314 67.3137 187.314C70.3143 184.313 72 180.243 72 176V16C72 11.7565 70.3143 7.68687 67.3137 4.68629C64.3131 1.68571 60.2435 0 56 0Z" fill="white"/>
</svg>
