<svg width="21" height="23" viewBox="0 0 21 23" fill="none" xmlns="http://www.w3.org/2000/svg">
<path d="M17.932 3.24211C16.9649 2.21022 15.8132 1.39214 14.544 0.835534C13.2749 0.278926 11.9136 -0.00507948 10.5395 6.87581e-05C4.78195 6.87581e-05 0.0896534 4.9593 0.0843797 11.0475C0.0843797 12.9975 0.566926 14.8945 1.47796 16.574L0 22.3013L5.54269 20.7653C7.07603 21.6474 8.79385 22.1098 10.5395 22.1103H10.5448C16.3037 22.1103 20.9947 17.1511 21 11.0573C21.0013 9.60498 20.7308 8.16675 20.204 6.82546C19.6772 5.48417 18.9046 4.26633 17.9307 3.24211H17.932ZM10.5395 20.2398C8.98248 20.2404 7.45403 19.7974 6.11489 18.9575L5.79847 18.7568L2.5103 19.6683L3.38837 16.2772L3.1827 15.9273C2.31228 14.4642 1.85193 12.7703 1.85503 11.042C1.85503 5.98794 5.75364 1.86501 10.5448 1.86501C11.6862 1.86284 12.8168 2.09955 13.8713 2.56149C14.9257 3.02343 15.8833 3.70145 16.6887 4.55648C17.497 5.40818 18.1377 6.42062 18.574 7.53541C19.0103 8.6502 19.2334 9.84528 19.2307 11.0517C19.2254 16.1238 15.3268 20.2398 10.5395 20.2398ZM15.3057 13.3627C15.046 13.2247 13.7631 12.557 13.5218 12.4623C13.2819 12.3717 13.1065 12.3243 12.9351 12.6002C12.7598 12.8748 12.2588 13.5007 12.1085 13.6805C11.9582 13.8658 11.8026 13.8867 11.5416 13.7502C11.2818 13.6108 10.4393 13.3209 9.44261 12.3772C8.66474 11.6455 8.14396 10.7395 7.98838 10.4649C7.83808 10.1889 7.97388 10.0412 8.1044 9.9032C8.21911 9.78054 8.36414 9.57983 8.49466 9.42093C8.6265 9.26204 8.67001 9.14495 8.75571 8.96097C8.84141 8.7742 8.80054 8.6153 8.73593 8.47731C8.67001 8.33932 8.14923 6.97756 7.92905 6.42839C7.7181 5.88619 7.5032 5.96146 7.34235 5.95449C7.19205 5.94473 7.0167 5.94473 6.84135 5.94473C6.70893 5.94821 6.57862 5.98059 6.4586 6.03983C6.33858 6.09908 6.23143 6.18391 6.1439 6.28901C5.90394 6.56498 5.23286 7.23263 5.23286 8.59439C5.23286 9.95616 6.16895 11.265 6.30079 11.4503C6.43 11.6357 8.13868 14.422 10.761 15.6207C11.3807 15.9064 11.8685 16.0751 12.2496 16.2033C12.8758 16.4151 13.4414 16.3831 13.8923 16.3148C14.3933 16.2339 15.4362 15.6458 15.6564 15.0004C15.8726 14.3537 15.8726 13.8017 15.8067 13.686C15.7421 13.569 15.5667 13.5007 15.3057 13.3627Z" fill="white"/>
</svg>
