<svg width="35" height="24" viewBox="0 0 35 24" fill="none" xmlns="http://www.w3.org/2000/svg">
<path d="M34.2671 3.7656C34.069 3.0389 33.683 2.38098 33.1502 1.86178C32.6023 1.32662 31.9309 0.943806 31.1992 0.749473C28.4608 0.00743355 17.4898 0.00743372 17.4898 0.00743372C12.9161 -0.0460641 8.34353 0.189233 3.79789 0.711996C3.06618 0.920686 2.39598 1.31205 1.8469 1.85129C1.30739 2.38496 0.91661 3.04305 0.712471 3.7641C0.222089 6.48003 -0.0161719 9.23772 0.000899938 12C-0.0165977 14.7598 0.221079 17.5166 0.712471 20.2359C0.912236 20.9539 1.30156 21.609 1.84253 22.1382C2.3835 22.6674 3.05716 23.0496 3.79789 23.252C6.57272 23.9925 17.4898 23.9925 17.4898 23.9925C22.0693 24.0461 26.6477 23.8108 31.1992 23.288C31.9309 23.0937 32.6023 22.7108 33.1502 22.1757C33.6828 21.6566 34.0683 20.9986 34.2657 20.2719C34.7689 17.557 35.0135 14.7981 34.9962 12.0345C35.034 9.2591 34.7897 6.48726 34.2671 3.7641V3.7656ZM14.0019 17.1328V6.86868L23.1299 12.0015L14.0019 17.1328Z" fill="white"/>
</svg>
