<svg width="556" height="555" viewBox="0 0 556 555" fill="none" xmlns="http://www.w3.org/2000/svg">
<path d="M540.888 270.998H535.314C534.815 268.317 534.106 265.681 533.191 263.113L538.016 260.332L528.581 244.021L523.759 246.796C521.983 244.728 520.048 242.801 517.972 241.034L520.762 236.209L504.425 226.807L501.619 231.593C499.042 230.677 496.396 229.967 493.707 229.47V223.914H474.84V229.479C472.152 229.976 469.507 230.686 466.931 231.602L464.144 226.786L447.806 236.188L450.596 241.013C448.519 242.779 446.585 244.706 444.81 246.775L439.975 243.988L430.541 260.298L435.366 263.079C434.449 265.647 433.739 268.284 433.243 270.964H427.669V289.798H433.243C433.74 292.479 434.45 295.115 435.366 297.683L430.541 300.461L439.975 316.772L444.81 313.985C446.585 316.054 448.519 317.981 450.596 319.747L447.806 324.575L464.144 333.977L466.931 329.161C469.507 330.078 472.151 330.788 474.84 331.284V336.849H493.734V331.284C496.424 330.788 499.07 330.078 501.647 329.161L504.434 333.977L520.771 324.575L517.981 319.747C520.057 317.98 521.992 316.053 523.768 313.985L528.602 316.772L538.013 300.507L533.188 297.729C534.102 295.161 534.812 292.524 535.31 289.844H540.885L540.888 270.998ZM523.152 295.618C521.199 301.049 518.067 305.98 513.983 310.057C509.898 314.135 504.961 317.257 499.527 319.201C464.996 331.526 433.091 299.679 445.438 265.217C447.393 259.787 450.525 254.856 454.61 250.779C458.695 246.702 463.632 243.579 469.066 241.634C503.588 229.303 535.492 261.147 523.152 295.618Z" fill="#EAB054"/>
<path d="M423.644 489.532C422.205 494.732 417.473 498.332 412.078 498.332H215.552C207.621 498.332 201.871 490.776 203.986 483.132L313.194 88.4529C314.633 83.2533 319.365 79.6531 324.76 79.6531H521.283C529.214 79.6531 534.963 87.2095 532.849 94.8532L423.644 489.532Z" fill="#32C385"/>
<path d="M467.737 289.446H267.314L314.64 118.415H515.061L467.737 289.446Z" fill="#F2E6DC"/>
<path d="M369.439 473.345H239.864L249.548 439.239H379.123L369.439 473.345Z" fill="#F2E6DC"/>
<path d="M422.946 370.64L424.769 363.919L325.931 364.471L322.286 377.916L421.124 377.364L422.946 370.64Z" fill="#EAB054"/>
<path d="M415.513 360.535L381.222 360.726L382.944 354.372L417.233 354.181L415.513 360.535Z" fill="#EAB054"/>
<path d="M411.856 341.358L386.435 341.501L388.158 335.147L413.575 335.005L411.856 341.358Z" fill="#EAB054"/>
<path d="M418.094 351.006L383.806 351.197L385.528 344.846L419.817 344.655L418.094 351.006Z" fill="#EAB054"/>
<path d="M342.53 342.754C331.032 327.053 305.451 327.195 285.392 343.057C265.334 358.918 258.392 384.558 269.889 400.252C281.386 415.947 306.967 415.81 327.026 399.931C347.085 384.051 354.027 358.454 342.53 342.754ZM289.286 383.902L280.309 371.647L295.968 359.255L304.942 371.51L289.286 383.902Z" fill="#EAB054"/>
<path d="M181.814 137.767H43.9357V220.502H181.814V137.767Z" fill="#32C385"/>
<path d="M126.039 162.351H52.8884V220.505H126.039V162.351Z" fill="#EAB054"/>
<path d="M122.472 173.439H56.4549C56.3745 173.439 56.2974 173.407 56.2405 173.35C56.1836 173.293 56.1517 173.216 56.1517 173.136C56.1517 173.055 56.1836 172.978 56.2405 172.921C56.2974 172.864 56.3745 172.833 56.4549 172.833H122.472C122.553 172.833 122.63 172.864 122.687 172.921C122.744 172.978 122.775 173.055 122.775 173.136C122.775 173.216 122.744 173.293 122.687 173.35C122.63 173.407 122.553 173.439 122.472 173.439Z" fill="#32C385"/>
<path d="M122.472 182.167H56.4549C56.3745 182.167 56.2974 182.135 56.2405 182.079C56.1836 182.022 56.1517 181.945 56.1517 181.864C56.1517 181.784 56.1836 181.706 56.2405 181.65C56.2974 181.593 56.3745 181.561 56.4549 181.561H122.472C122.553 181.561 122.63 181.593 122.687 181.65C122.744 181.706 122.775 181.784 122.775 181.864C122.775 181.945 122.744 182.022 122.687 182.079C122.63 182.135 122.553 182.167 122.472 182.167Z" fill="#32C385"/>
<path d="M122.472 190.896H56.4549C56.3745 190.896 56.2974 190.864 56.2405 190.807C56.1836 190.75 56.1517 190.673 56.1517 190.593C56.1517 190.512 56.1836 190.435 56.2405 190.378C56.2974 190.321 56.3745 190.289 56.4549 190.289H122.472C122.553 190.289 122.63 190.321 122.687 190.378C122.744 190.435 122.775 190.512 122.775 190.593C122.775 190.673 122.744 190.75 122.687 190.807C122.63 190.864 122.553 190.896 122.472 190.896Z" fill="#32C385"/>
<path d="M122.472 199.621H56.4549C56.3745 199.621 56.2974 199.589 56.2405 199.532C56.1836 199.475 56.1517 199.398 56.1517 199.318C56.1517 199.237 56.1836 199.16 56.2405 199.103C56.2974 199.047 56.3745 199.015 56.4549 199.015H122.472C122.553 199.015 122.63 199.047 122.687 199.103C122.744 199.16 122.775 199.237 122.775 199.318C122.775 199.398 122.744 199.475 122.687 199.532C122.63 199.589 122.553 199.621 122.472 199.621Z" fill="#32C385"/>
<path d="M122.472 208.352H56.4549C56.3745 208.352 56.2974 208.32 56.2405 208.264C56.1836 208.207 56.1517 208.13 56.1517 208.049C56.1517 207.969 56.1836 207.892 56.2405 207.835C56.2974 207.778 56.3745 207.746 56.4549 207.746H122.472C122.553 207.746 122.63 207.778 122.687 207.835C122.744 207.892 122.775 207.969 122.775 208.049C122.775 208.13 122.744 208.207 122.687 208.264C122.63 208.32 122.553 208.352 122.472 208.352Z" fill="#32C385"/>
<path d="M207.208 18.1512L135.122 82.8952V220.02H279.296V82.8952L207.208 18.1512Z" fill="#EAB054"/>
<path d="M279.297 77.9669C279.223 77.9668 279.152 77.9399 279.096 77.8911L207.22 13.3261L135.343 77.8911C135.283 77.9397 135.206 77.9632 135.128 77.9568C135.051 77.9504 134.979 77.9145 134.927 77.8565C134.875 77.7986 134.848 77.723 134.85 77.6453C134.853 77.5677 134.885 77.4939 134.94 77.4392L207.008 12.6923C207.063 12.6428 207.135 12.6155 207.209 12.6155C207.284 12.6155 207.355 12.6428 207.411 12.6923L279.5 77.4392C279.545 77.4803 279.577 77.5342 279.591 77.5937C279.605 77.6532 279.601 77.7156 279.579 77.7726C279.557 77.8297 279.518 77.8788 279.468 77.9135C279.417 77.9481 279.358 77.9668 279.297 77.9669Z" fill="#D3BBA3"/>
<path d="M257.342 143.566H214.465V207.37H257.342V143.566Z" fill="#32C385"/>
<path d="M351.716 193.674H382.802V129.87H351.716V193.674Z" fill="#32C385"/>
<path d="M285.274 220.666H135.907C135.827 220.666 135.75 220.634 135.693 220.577C135.636 220.52 135.604 220.443 135.604 220.362C135.604 220.282 135.636 220.205 135.693 220.148C135.75 220.091 135.827 220.059 135.907 220.059H285.274C285.355 220.059 285.432 220.091 285.489 220.148C285.545 220.205 285.577 220.282 285.577 220.362C285.577 220.443 285.545 220.52 285.489 220.577C285.432 220.634 285.355 220.666 285.274 220.666Z" fill="#EAB054"/>
<path d="M203.198 143.566H147.028V198.678H203.198V143.566Z" fill="#32C385"/>
<path d="M266.72 121.976H147.028V137.77H266.72V121.976Z" fill="#32C385"/>
<path d="M266.723 113.875H147.696V82.416L207.226 28.5931L266.723 82.416V113.875Z" fill="#32C385"/>
<path d="M174.727 111.564C174.646 111.564 174.569 111.532 174.512 111.475C174.455 111.418 174.423 111.341 174.423 111.261V61.0712C174.423 60.9908 174.455 60.9136 174.512 60.8568C174.569 60.7999 174.646 60.7679 174.727 60.7679C174.807 60.7679 174.884 60.7999 174.941 60.8568C174.998 60.9136 175.03 60.9908 175.03 61.0712V111.261C175.03 111.341 174.998 111.418 174.941 111.475C174.884 111.532 174.807 111.564 174.727 111.564Z" fill="#EAB054"/>
<path d="M239.692 111.564C239.611 111.564 239.534 111.532 239.477 111.475C239.42 111.418 239.388 111.341 239.388 111.261V61.0712C239.388 60.9908 239.42 60.9136 239.477 60.8568C239.534 60.7999 239.611 60.7679 239.692 60.7679C239.772 60.7679 239.849 60.7999 239.906 60.8568C239.963 60.9136 239.995 60.9908 239.995 61.0712V111.261C239.995 111.341 239.963 111.418 239.906 111.475C239.849 111.532 239.772 111.564 239.692 111.564Z" fill="#EAB054"/>
<path d="M174.727 111.564C174.646 111.564 174.569 111.532 174.512 111.475C174.455 111.418 174.423 111.341 174.423 111.261V61.0712C174.423 60.9908 174.455 60.9136 174.512 60.8568C174.569 60.7999 174.646 60.7679 174.727 60.7679C174.807 60.7679 174.884 60.7999 174.941 60.8568C174.998 60.9136 175.03 60.9908 175.03 61.0712V111.261C175.03 111.341 174.998 111.418 174.941 111.475C174.884 111.532 174.807 111.564 174.727 111.564Z" fill="#EAB054"/>
<path d="M239.692 111.564C239.611 111.564 239.534 111.532 239.477 111.475C239.42 111.418 239.388 111.341 239.388 111.261V61.0712C239.388 60.9908 239.42 60.9136 239.477 60.8568C239.534 60.7999 239.611 60.7679 239.692 60.7679C239.772 60.7679 239.849 60.7999 239.906 60.8568C239.963 60.9136 239.995 60.9908 239.995 61.0712V111.261C239.995 111.341 239.963 111.418 239.906 111.475C239.849 111.532 239.772 111.564 239.692 111.564Z" fill="#EAB054"/>
<path d="M175.115 197.131C175.035 197.131 174.957 197.099 174.9 197.042C174.844 196.985 174.812 196.908 174.812 196.828V145.631C174.812 145.551 174.844 145.474 174.9 145.417C174.957 145.36 175.035 145.328 175.115 145.328C175.195 145.328 175.273 145.36 175.329 145.417C175.386 145.474 175.418 145.551 175.418 145.631V196.828C175.418 196.908 175.386 196.985 175.329 197.042C175.273 197.099 175.195 197.131 175.115 197.131Z" fill="#EAB054"/>
<path d="M487.559 264.573C486.12 269.772 481.389 273.372 475.994 273.372H230.925C222.994 273.372 217.244 265.816 219.359 258.172L267.351 84.7317C268.79 79.5322 273.521 75.9319 278.916 75.9319H523.985C531.916 75.9319 537.666 83.4884 535.551 91.1321L512.44 174.652L487.559 264.573Z" fill="#0E2E35"/>
<path d="M513.729 107.685H277.322L280.819 94.8716H517.226L513.729 107.685Z" fill="white"/>
<path d="M479.911 171.88H265.349L274.996 137.061H489.558L479.911 171.88Z" fill="#269667"/>
<path d="M291.107 160.274C294.963 157.171 296.176 152.278 293.816 149.346C291.456 146.414 286.417 146.553 282.562 149.657C278.706 152.76 277.493 157.653 279.853 160.585C282.213 163.516 287.252 163.377 291.107 160.274Z" fill="#F2E6DC"/>
<path d="M314.17 160.275C318.026 157.171 319.238 152.279 316.879 149.347C314.519 146.415 309.48 146.554 305.624 149.657C301.769 152.761 300.556 157.653 302.916 160.585C305.276 163.517 310.314 163.378 314.17 160.275Z" fill="#F2E6DC"/>
<path d="M337.233 160.278C341.089 157.175 342.301 152.282 339.942 149.35C337.582 146.418 332.543 146.557 328.687 149.661C324.832 152.764 323.619 157.657 325.979 160.589C328.339 163.521 333.377 163.382 337.233 160.278Z" fill="#F2E6DC"/>
<path d="M360.295 160.277C364.151 157.174 365.364 152.281 363.004 149.349C360.644 146.417 355.605 146.556 351.75 149.66C347.894 152.763 346.681 157.656 349.041 160.588C351.401 163.519 356.44 163.38 360.295 160.277Z" fill="#F2E6DC"/>
<path d="M383.358 160.275C387.214 157.171 388.427 152.279 386.067 149.347C383.707 146.415 378.668 146.554 374.813 149.657C370.957 152.761 369.744 157.653 372.104 160.585C374.464 163.517 379.503 163.378 383.358 160.275Z" fill="#F2E6DC"/>
<path d="M406.421 160.275C410.277 157.172 411.49 152.279 409.13 149.347C406.77 146.415 401.731 146.554 397.876 149.658C394.02 152.761 392.807 157.654 395.167 160.586C397.527 163.517 402.566 163.378 406.421 160.275Z" fill="#F2E6DC"/>
<path d="M429.481 160.279C433.337 157.175 434.55 152.283 432.19 149.351C429.83 146.419 424.791 146.558 420.935 149.661C417.08 152.765 415.867 157.657 418.227 160.589C420.587 163.521 425.625 163.382 429.481 160.279Z" fill="#F2E6DC"/>
<path d="M465.49 224.247H250.928L260.575 189.431H475.137L465.49 224.247Z" fill="#269667"/>
<path d="M276.687 212.645C280.542 209.542 281.755 204.649 279.395 201.717C277.035 198.786 271.997 198.925 268.141 202.028C264.285 205.131 263.073 210.024 265.432 212.956C267.792 215.888 272.831 215.749 276.687 212.645Z" fill="#D55531"/>
<path d="M300.679 211.975C304.54 208.857 305.747 203.949 303.376 201.014C301.005 198.078 295.953 198.226 292.092 201.344C288.232 204.462 287.024 209.37 289.395 212.306C291.767 215.241 296.818 215.093 300.679 211.975Z" fill="#D55531"/>
<path d="M322.809 212.647C326.665 209.543 327.878 204.651 325.518 201.719C323.158 198.787 318.119 198.926 314.264 202.029C310.408 205.133 309.195 210.025 311.555 212.957C313.915 215.889 318.954 215.75 322.809 212.647Z" fill="#D55531"/>
<path d="M346.85 211.838C350.711 208.72 351.919 203.813 349.547 200.877C347.176 197.941 342.125 198.089 338.264 201.208C334.403 204.326 333.196 209.233 335.567 212.169C337.938 215.105 342.99 214.957 346.85 211.838Z" fill="#D55531"/>
<path d="M208.242 212.152C208.114 212.152 207.99 212.152 207.863 212.152C206.101 212.007 204.527 210.885 203.45 208.989C202.373 207.094 201.919 204.743 202.125 202.272C202.549 197.116 205.822 193.173 209.403 193.477C211.165 193.622 212.739 194.744 213.813 196.64C214.887 198.535 215.348 200.886 215.141 203.36C214.738 208.301 211.687 212.152 208.242 212.152ZM209.027 194.041C205.904 194.041 203.113 197.653 202.728 202.305C202.531 204.662 202.977 206.921 203.978 208.674C204.979 210.427 206.355 211.403 207.92 211.534C211.193 211.804 214.156 208.101 214.556 203.282C214.75 200.928 214.307 198.666 213.307 196.913C212.306 195.16 210.929 194.183 209.364 194.053C209.261 194.044 209.14 194.041 209.027 194.041Z" fill="#0E2E35"/>
<path d="M206.704 201.01C207.887 186.911 207.332 178.589 201.718 172.023C194.176 163.2 181.399 164.04 180.077 164.137C179.227 164.207 167.081 164.459 160.427 174.692C153.852 184.797 155.147 202.305 160.843 212.802L149.579 238.756C146.04 246.538 147.456 249.714 155.256 253.247L157.021 254.047C160.764 255.744 165.026 255.886 168.874 254.444C172.721 253.002 175.839 250.092 177.544 246.353L184.908 230.188C190.039 232.008 194.613 232.357 197.309 230.568C202.152 227.347 205.318 217.615 206.704 201.01Z" fill="#F7A491"/>
<path d="M214.486 204.182H214.423L189.326 198.742C189.287 198.733 189.249 198.717 189.215 198.694C189.182 198.671 189.153 198.642 189.131 198.608C189.108 198.574 189.093 198.536 189.086 198.496C189.078 198.456 189.079 198.414 189.087 198.375C189.095 198.335 189.111 198.297 189.134 198.263C189.157 198.23 189.187 198.201 189.221 198.179C189.255 198.157 189.293 198.141 189.333 198.134C189.373 198.126 189.414 198.127 189.454 198.135L214.55 203.576C214.63 203.584 214.704 203.624 214.755 203.687C214.806 203.75 214.83 203.831 214.821 203.911C214.813 203.991 214.773 204.065 214.71 204.116C214.647 204.167 214.567 204.191 214.486 204.182Z" fill="#0E2E35"/>
<path d="M185.302 230.188C185.252 230.189 185.202 230.177 185.158 230.153C185.113 230.13 185.075 230.096 185.047 230.054C185.019 230.012 185.002 229.964 184.997 229.914C184.993 229.864 185 229.813 185.02 229.767L187.558 223.768C187.573 223.73 187.595 223.695 187.623 223.666C187.651 223.636 187.685 223.613 187.723 223.597C187.76 223.581 187.801 223.572 187.842 223.572C187.882 223.572 187.923 223.58 187.96 223.596C187.998 223.612 188.032 223.636 188.06 223.665C188.089 223.694 188.111 223.729 188.125 223.767C188.14 223.805 188.147 223.846 188.145 223.887C188.144 223.928 188.134 223.968 188.116 224.005L185.581 230.003C185.558 230.058 185.519 230.105 185.469 230.138C185.42 230.171 185.362 230.188 185.302 230.188Z" fill="#0E2E35"/>
<path d="M184.119 207.139C184.053 207.143 183.987 207.124 183.932 207.086C183.877 207.048 183.837 206.993 183.816 206.93C183.14 204.859 182.742 203.536 182.448 202.572C182.306 202.102 182.19 201.714 182.078 201.359C182.06 201.284 182.07 201.205 182.108 201.138C182.145 201.071 182.207 201.02 182.28 200.997C182.353 200.973 182.432 200.979 182.502 201.011C182.572 201.044 182.626 201.102 182.654 201.174C182.77 201.529 182.888 201.92 183.03 202.387C183.334 203.351 183.719 204.668 184.392 206.733C184.417 206.809 184.411 206.893 184.374 206.964C184.338 207.036 184.274 207.09 184.198 207.115C184.173 207.128 184.147 207.136 184.119 207.139Z" fill="#0E2E35"/>
<path d="M205.364 172.511C200.815 160.683 177.802 155.882 164.864 162.891C147.371 172.372 142.846 196.694 152.014 209.829C155.09 214.239 160.737 220.484 169.768 220.405C175.045 220.359 177.095 213.563 177.559 211.913C173.829 209.329 172.51 204.483 174.342 200.586C176.173 196.688 180.747 194.717 184.541 195.733C186.395 196.262 188.019 197.394 189.157 198.951C201.209 190.641 208.603 180.936 205.364 172.511Z" fill="#0E2E35"/>
<path d="M138.173 106.736C97.7097 111.528 99.9418 61.1168 99.9418 61.1168L60.2489 117.527C64.7223 139.708 84.5353 147.057 84.5353 147.057C67.6762 147.266 58.1199 135.626 53.4252 127.222L42.3708 142.935C42.3708 142.935 52.3789 181.755 91.8837 166.012C131.389 150.269 155.848 183.802 155.848 183.802L162.414 166.012C162.414 166.012 178.63 101.944 138.173 106.736Z" fill="#0E2E35"/>
<path d="M151.356 175.75C151.301 175.75 151.246 175.734 151.199 175.705C151.152 175.676 151.113 175.634 151.088 175.585C151.062 175.536 151.051 175.48 151.055 175.425C151.059 175.369 151.078 175.316 151.111 175.271C153.358 172.089 155.681 168.796 157.246 165.162C158.113 163.149 158.523 161.493 158.541 159.946C158.562 158.02 157.91 156.261 156.755 155.115C155.454 153.829 153.5 153.401 151.999 154.075C151.524 154.301 151.103 154.626 150.762 155.027C150.421 155.427 150.169 155.896 150.022 156.401C149.819 157.004 149.743 157.642 149.798 158.276C149.853 158.91 150.037 159.526 150.34 160.086C150.844 160.935 151.58 161.622 152.462 162.065C153.344 162.508 154.335 162.688 155.317 162.585C155.397 162.575 155.478 162.598 155.542 162.648C155.606 162.698 155.647 162.771 155.657 162.851C155.666 162.932 155.644 163.013 155.594 163.077C155.544 163.14 155.47 163.182 155.39 163.191C154.29 163.307 153.179 163.104 152.191 162.606C151.203 162.108 150.38 161.336 149.819 160.383C149.475 159.75 149.265 159.053 149.202 158.336C149.139 157.619 149.224 156.896 149.452 156.213C149.624 155.627 149.919 155.084 150.316 154.62C150.713 154.155 151.204 153.781 151.757 153.52C153.479 152.746 155.699 153.216 157.188 154.684C158.459 155.946 159.175 157.866 159.154 159.952C159.135 161.581 158.708 163.312 157.807 165.411C156.218 169.102 153.864 172.42 151.611 175.632C151.581 175.67 151.543 175.701 151.498 175.722C151.454 175.743 151.405 175.752 151.356 175.75Z" fill="#EAB054"/>
<path d="M148.706 173.855C148.651 173.855 148.597 173.84 148.55 173.812C148.502 173.784 148.464 173.744 148.438 173.696C148.411 173.648 148.399 173.593 148.401 173.538C148.404 173.483 148.421 173.43 148.451 173.384L151.499 168.726C151.52 168.692 151.549 168.663 151.582 168.64C151.615 168.617 151.652 168.601 151.691 168.592C151.731 168.584 151.771 168.583 151.811 168.591C151.85 168.598 151.888 168.613 151.922 168.635C151.955 168.658 151.984 168.686 152.007 168.72C152.029 168.753 152.045 168.791 152.052 168.83C152.06 168.87 152.06 168.91 152.052 168.95C152.044 168.989 152.028 169.026 152.005 169.06L148.973 173.718C148.944 173.762 148.904 173.798 148.857 173.822C148.81 173.846 148.758 173.857 148.706 173.855Z" fill="#EAB054"/>
<path d="M153.649 180.147C153.574 180.147 153.501 180.119 153.446 180.069C143.884 171.319 130.451 166.652 117.517 167.574C110.332 168.089 103.281 170.23 96.4602 172.299C94.8892 172.778 93.2667 173.269 91.6654 173.736C83.6498 176.065 74.2361 178.225 65.2288 176.548C57.1313 175.031 47.942 169.366 45.6795 160.083C45.6603 160.005 45.6728 159.922 45.7143 159.853C45.7558 159.784 45.8229 159.735 45.9009 159.716C45.979 159.696 46.0614 159.709 46.1302 159.75C46.199 159.792 46.2485 159.859 46.2679 159.937C48.4697 168.957 57.4315 174.494 65.3379 175.95C74.2239 177.606 83.5497 175.465 91.4955 173.154C93.0938 172.687 94.7163 172.196 96.2843 171.719C103.135 169.639 110.235 167.473 117.474 166.97C130.57 166.033 144.163 170.761 153.867 179.62C153.913 179.661 153.945 179.715 153.959 179.775C153.973 179.835 153.968 179.897 153.946 179.955C153.924 180.012 153.884 180.061 153.834 180.095C153.783 180.13 153.723 180.148 153.661 180.147H153.649Z" fill="#0E2E35"/>
<path d="M129.244 188.943C128.017 188.949 126.812 188.621 125.757 187.993C124.691 187.334 123.827 186.396 123.257 185.28C122.687 184.164 122.434 182.914 122.524 181.664C122.712 179.447 124.058 177.188 126.318 175.295C128.126 173.791 130.224 172.676 132.482 172.018C134.74 171.36 137.109 171.174 139.441 171.471C141.774 171.769 144.021 172.543 146.041 173.746C148.062 174.949 149.813 176.555 151.186 178.464C151.21 178.497 151.226 178.534 151.236 178.573C151.245 178.611 151.246 178.652 151.239 178.691C151.233 178.731 151.219 178.768 151.198 178.802C151.177 178.836 151.149 178.866 151.117 178.889C151.084 178.912 151.047 178.929 151.009 178.938C150.97 178.947 150.929 178.949 150.89 178.942C150.851 178.936 150.813 178.921 150.779 178.9C150.745 178.879 150.715 178.852 150.692 178.819C149.368 176.978 147.679 175.428 145.73 174.268C143.781 173.107 141.614 172.36 139.364 172.073C137.114 171.787 134.829 171.966 132.651 172.601C130.473 173.235 128.45 174.312 126.706 175.762C124.583 177.539 123.303 179.647 123.127 181.7C123.032 182.842 123.258 183.987 123.779 185.006C124.3 186.026 125.096 186.88 126.076 187.471C127.056 188.063 128.183 188.369 129.328 188.354C130.473 188.34 131.591 188.006 132.556 187.39C134.021 186.456 135.213 184.56 134.658 182.741C134.491 182.285 134.213 181.878 133.848 181.557C133.484 181.236 133.045 181.011 132.571 180.903C132.253 180.81 131.918 180.791 131.592 180.848C131.265 180.905 130.956 181.036 130.688 181.23L131.264 182.122C131.286 182.155 131.301 182.193 131.308 182.232C131.315 182.271 131.315 182.312 131.306 182.351C131.298 182.39 131.282 182.427 131.26 182.459C131.237 182.492 131.208 182.52 131.175 182.542C131.141 182.564 131.104 182.579 131.065 182.586C131.025 182.593 130.985 182.593 130.946 182.584C130.907 182.576 130.87 182.56 130.837 182.537C130.804 182.515 130.776 182.486 130.755 182.453L129.905 181.139L130.075 180.966C130.418 180.634 130.843 180.399 131.307 180.284C131.77 180.17 132.256 180.18 132.714 180.314C133.291 180.444 133.826 180.719 134.267 181.112C134.709 181.506 135.043 182.006 135.237 182.565C135.883 184.688 134.54 186.844 132.881 187.902C131.791 188.586 130.53 188.947 129.244 188.943Z" fill="#0E2E35"/>
<path d="M29.6483 450.46C29.6483 450.46 23.2128 483.872 39.8991 499.521H343.949C343.949 499.521 379.62 414.494 192.729 421.558L29.6483 450.46Z" fill="#0E2E35"/>
<path d="M28.2472 325.27C26.1 325.721 16.841 347.624 7.55463 370.91C-3.06005 397.541 16.4831 426.504 45.1973 426.713L54.699 426.78L93.9126 318.864L28.2472 325.27Z" fill="#F7A491"/>
<path d="M59.9578 328.481H13.0834L36.002 282.425C41.6293 271.132 50.2957 261.632 61.0266 254.994C71.7575 248.357 84.1274 244.844 96.7453 244.852H168.319L59.9578 328.481Z" fill="#121417"/>
<path d="M264.302 269.66C290.785 280.357 315.12 286.504 332.236 298.848C353.426 314.133 361.873 337.022 352.228 347.26C342.114 357.996 301.982 365.833 248.35 341.577C249.597 319.677 251.113 291.587 264.302 269.66Z" fill="#F7A491"/>
<path d="M309.494 298.696C315.96 283.56 332.179 249.735 346.039 224.627C360.596 198.256 385.929 161.441 391.042 165.044C393.956 167.098 391.539 172.833 384.066 187.73C385.198 187.354 388.679 186.896 391.069 189.246C394.605 192.719 392.81 196.507 392.783 196.91C393.156 196.749 397.229 195.154 399.992 197.077C403.1 199.245 403.849 202.445 403.249 205.353C404.189 204.989 407.798 203.994 410.391 205.923C413.063 207.907 414.412 211.913 412.69 214.925C409.533 220.453 399.831 236.7 396.073 245.18C388.682 261.86 370.401 324.654 353.329 345.956C340.789 325.934 322.031 318.719 309.494 298.696Z" fill="#F7A491"/>
<path d="M374.695 193.91C374.627 193.911 374.561 193.888 374.507 193.847L370.537 190.735C370.474 190.686 370.432 190.613 370.422 190.533C370.413 190.453 370.435 190.373 370.484 190.309C370.534 190.245 370.606 190.204 370.686 190.194C370.766 190.184 370.847 190.206 370.91 190.256L374.883 193.371C374.932 193.41 374.968 193.463 374.985 193.523C375.002 193.584 375 193.648 374.98 193.707C374.959 193.766 374.921 193.817 374.87 193.854C374.819 193.89 374.758 193.91 374.695 193.91Z" fill="#0E2E35"/>
<path d="M384.788 201.796C384.72 201.796 384.654 201.774 384.6 201.732L380.627 198.617C380.593 198.594 380.563 198.564 380.541 198.529C380.518 198.494 380.503 198.454 380.497 198.413C380.49 198.372 380.492 198.33 380.502 198.289C380.513 198.249 380.532 198.211 380.557 198.178C380.583 198.145 380.615 198.118 380.652 198.098C380.689 198.079 380.729 198.067 380.771 198.063C380.812 198.06 380.854 198.065 380.894 198.078C380.933 198.092 380.969 198.113 381 198.141L384.973 201.253C385.005 201.277 385.031 201.308 385.051 201.343C385.071 201.378 385.083 201.416 385.088 201.456C385.093 201.496 385.09 201.536 385.079 201.574C385.068 201.613 385.05 201.649 385.025 201.68C384.997 201.716 384.961 201.745 384.92 201.765C384.879 201.785 384.834 201.795 384.788 201.796Z" fill="#0E2E35"/>
<path d="M395.151 209.711C395.083 209.711 395.017 209.687 394.963 209.645L390.99 206.533C390.959 206.508 390.933 206.478 390.913 206.443C390.894 206.408 390.882 206.37 390.877 206.33C390.872 206.291 390.876 206.251 390.886 206.212C390.897 206.174 390.916 206.138 390.94 206.107C390.965 206.076 390.996 206.049 391.03 206.03C391.065 206.011 391.103 205.998 391.143 205.994C391.182 205.989 391.223 205.992 391.261 206.003C391.299 206.014 391.335 206.032 391.366 206.057L395.339 209.168C395.402 209.218 395.443 209.29 395.453 209.37C395.462 209.45 395.44 209.53 395.391 209.593C395.363 209.63 395.326 209.659 395.285 209.68C395.243 209.7 395.198 209.711 395.151 209.711Z" fill="#0E2E35"/>
<path d="M404.401 217.081C404.334 217.081 404.269 217.058 404.216 217.017L400.243 213.902C400.209 213.879 400.179 213.849 400.157 213.814C400.134 213.779 400.119 213.739 400.112 213.698C400.106 213.657 400.108 213.615 400.118 213.574C400.129 213.534 400.147 213.496 400.173 213.463C400.199 213.431 400.231 213.403 400.268 213.384C400.305 213.364 400.345 213.352 400.387 213.348C400.428 213.345 400.47 213.35 400.51 213.363C400.549 213.377 400.585 213.398 400.616 213.426L404.589 216.538C404.621 216.563 404.647 216.593 404.667 216.628C404.687 216.663 404.699 216.701 404.704 216.741C404.709 216.781 404.706 216.821 404.695 216.86C404.684 216.898 404.666 216.934 404.641 216.966C404.612 217.002 404.576 217.031 404.534 217.051C404.493 217.071 404.447 217.081 404.401 217.081Z" fill="#0E2E35"/>
<path d="M140.999 244.852C217.425 243.032 280.655 271.938 280.655 271.938L273.34 354.872L240.868 355.479L221.089 422.143L197.06 421.457L181.123 463.589L13.0803 465.49L45.0123 352.331C45.0123 352.331 61.5288 246.726 140.999 244.852Z" fill="#121417"/>
<path d="M241.19 355.242C241.112 355.243 241.037 355.213 240.981 355.159C240.924 355.105 240.89 355.032 240.887 354.954C240.774 352.225 240.717 348.889 240.659 345.674C240.601 342.459 240.547 339.123 240.435 336.421C240.435 336.341 240.467 336.263 240.523 336.206C240.58 336.15 240.657 336.118 240.738 336.118C240.818 336.118 240.895 336.15 240.952 336.206C241.009 336.263 241.041 336.341 241.041 336.421C241.153 339.129 241.211 342.465 241.266 345.689C241.32 348.913 241.381 352.246 241.493 354.951C241.493 355.032 241.461 355.109 241.404 355.166C241.347 355.223 241.27 355.255 241.19 355.255V355.242Z" fill="#0E2E35"/>
<path d="M50.9869 325.573C50.9586 325.575 50.9302 325.575 50.902 325.573C50.8247 325.55 50.7596 325.498 50.721 325.427C50.6823 325.357 50.6732 325.274 50.6957 325.197L59.8122 293.992C59.8234 293.954 59.8419 293.918 59.8669 293.887C59.8918 293.856 59.9226 293.83 59.9575 293.811C59.9925 293.792 60.0308 293.78 60.0704 293.776C60.11 293.771 60.15 293.775 60.1883 293.786C60.2655 293.809 60.3306 293.861 60.3693 293.931C60.408 294.002 60.417 294.085 60.3945 294.162L51.278 325.366C51.2575 325.427 51.2183 325.48 51.166 325.517C51.1137 325.554 51.051 325.573 50.9869 325.573Z" fill="#0E2E35"/>
<path d="M96.7453 244.852C96.7453 244.852 103.851 230.413 122.093 230.364C140.335 230.316 207.384 244.555 207.384 244.555L210.416 252.106C210.416 252.106 157.185 283.465 118.948 287.981C80.711 292.497 82.3396 257.335 96.7453 244.852Z" fill="#269667"/>
<path d="M135.21 260.538C127.497 260.538 122.472 259.073 119.179 257.202C114.326 254.436 113.677 250.975 113.65 250.833C113.636 250.752 113.654 250.67 113.701 250.603C113.748 250.536 113.82 250.49 113.9 250.476C113.981 250.462 114.063 250.481 114.13 250.528C114.197 250.575 114.242 250.646 114.256 250.727C114.256 250.793 114.942 254.096 119.527 256.701C127.528 261.25 146.079 263.285 189.05 247.23C189.089 247.202 189.133 247.184 189.179 247.176C189.226 247.169 189.273 247.172 189.318 247.186C189.363 247.201 189.404 247.225 189.438 247.258C189.472 247.29 189.498 247.33 189.514 247.375C189.529 247.419 189.534 247.467 189.529 247.513C189.523 247.56 189.506 247.605 189.48 247.644C189.454 247.683 189.419 247.716 189.378 247.739C189.337 247.763 189.292 247.776 189.245 247.779C163.554 257.393 146.51 260.538 135.21 260.538Z" fill="#0E2E35"/>
</svg>
