<svg width="682" height="405" viewBox="0 0 682 405" fill="none" xmlns="http://www.w3.org/2000/svg">
<path d="M501.668 60.0574H461.052V374.159H501.668V60.0574Z" fill="#32C385"/>
<path d="M444.948 155.866H404.332V374.159H444.948V155.866Z" fill="#32C385"/>
<path d="M559.206 128.11H518.59V374.159H559.206V128.11Z" fill="#32C385"/>
<path d="M388.225 118.434H347.609V374.159H388.225V118.434Z" fill="#32C385"/>
<path d="M331.505 194.254H290.889V374.157H331.505V194.254Z" fill="#32C385"/>
<g style="mix-blend-mode:multiply" opacity="0.3">
<path d="M501.668 132.449H461.052V374.159H501.668V132.449Z" fill="#37393D"/>
</g>
<g style="mix-blend-mode:multiply" opacity="0.3">
<path d="M444.948 206.175H404.332V374.157H444.948V206.175Z" fill="#37393D"/>
</g>
<g style="mix-blend-mode:multiply" opacity="0.3">
<path d="M559.206 184.818H518.59V374.159H559.206V184.818Z" fill="#37393D"/>
</g>
<g style="mix-blend-mode:multiply" opacity="0.3">
<path d="M388.225 177.372H347.609V374.159H388.225V177.372Z" fill="#37393D"/>
</g>
<g style="mix-blend-mode:multiply" opacity="0.3">
<path d="M331.505 235.718H290.889V374.159H331.505V235.718Z" fill="#37393D"/>
</g>
<path d="M578.946 62.4611L546.583 86.915L558.928 87.7027L481.672 223.554L438.896 159.479L378.385 300.502L339.462 245.266L290.952 313.782L294.004 326.045L339.441 262.181L380.584 320.568L440.874 180.061L482.378 242.23L567.908 91.8276L575.849 100.361L578.946 62.4611Z" fill="#D55531"/>
<path d="M253.951 283.336C207.508 246.384 168.485 198.59 138.94 142.471L75.0585 193.742C109.221 258.627 154.341 313.887 208.037 356.603L253.951 283.336Z" fill="#32C385"/>
<path opacity="0.57" d="M128.935 155.87L89.2559 188.228C92.4054 194.1 91.2624 202.01 86.5704 206.026C116.601 259.081 154.239 305.178 198.066 342.584C201.649 337.209 208.402 336.166 213.266 340.101L242.216 294.603C237.758 290.982 237.113 283.581 240.694 278.211C202.206 245.363 169.15 204.883 142.784 158.292C138.084 162.306 131.834 161.271 128.935 155.87Z" fill="#D0D2D3"/>
<path opacity="0.2" d="M182.387 277.156C192.304 264.37 192.209 245.507 182.855 234.226C173.502 222.944 157.452 222.442 146.374 233.821C135.295 245.199 134.248 265.358 144.793 278.031C155.338 290.703 172.492 289.921 182.387 277.156Z" fill="#32C385"/>
<path d="M181.73 240.872C180.486 242.254 179.24 243.636 177.993 245.017C180.974 250.484 180.342 256.118 177.13 259.799C173.887 263.509 170.251 263.849 164.712 260.575C160.691 258.305 158.757 257.635 157.531 258.955C156.495 260.075 156.151 262.108 158.342 264.884C159.315 266.131 160.477 267.218 161.787 268.106C163.206 269.051 163.639 271.188 162.772 272.832C161.933 274.42 160.162 274.946 158.806 273.98C157.469 273.005 156.251 271.876 155.178 270.617L151.935 274.183C150.805 272.769 149.683 271.348 148.569 269.918L152.089 266.105C149.241 260.611 149.807 255.148 153.102 251.683C156.751 247.856 160.968 249.032 165.804 252.062C169.156 254.152 171.1 254.492 172.492 252.939C173.958 251.308 173.479 248.824 171.637 246.475C170.468 244.993 169.053 243.723 167.454 242.72C166.035 241.823 165.644 239.634 166.601 237.998L166.704 237.818C167.573 236.332 169.231 235.829 170.496 236.654C172.216 237.797 173.77 239.174 175.111 240.744L178.613 236.925C179.647 238.245 180.686 239.561 181.73 240.872Z" fill="#32C385"/>
<path d="M218.978 310.058C208.394 301.002 198.203 291.417 188.404 281.303L183.372 287.842C193.299 298.089 203.635 307.809 214.381 317.002C215.909 314.686 217.441 312.372 218.978 310.058Z" fill="#50BFA5"/>
<path d="M244.48 268.438C186.144 261.045 128.936 241.544 75.855 210.962L45.6018 281.817C106.964 317.178 173.112 339.732 240.561 348.272C241.863 321.662 243.17 295.051 244.48 268.438Z" fill="#32C385"/>
<path opacity="0.57" d="M73.7533 226.32C67.5676 241.127 61.3834 255.934 55.2004 270.742C60.8003 273.91 63.6844 280.732 61.5827 286.132C113.577 314.055 168.755 332.863 225.044 341.85C225.52 335.893 230.863 331.877 237.002 332.708L239.823 282.927C234.18 282.161 230.005 276.591 230.482 270.637C181.049 262.74 132.59 246.228 86.9373 221.709C84.8315 227.106 78.9073 229.23 73.7533 226.32Z" fill="#D0D2D3"/>
<path opacity="0.2" d="M179.436 297.329C181.773 282.5 172.458 267.573 158.828 263.035C145.192 258.534 131.045 265.68 127.008 279.946C122.971 294.212 131.935 310.702 147.276 315.789C162.616 320.875 177.107 312.134 179.436 297.329Z" fill="#32C385"/>
<path d="M161.108 268.843C160.703 270.531 160.297 272.218 159.892 273.906C165.147 276.83 167.361 281.601 166.378 286.056C165.382 290.533 162.403 292.521 155.999 292.536C151.4 292.633 149.398 293.013 148.984 294.646C148.633 296.025 149.331 297.801 152.596 298.965C154.062 299.498 155.598 299.812 157.156 299.896C158.838 299.981 160.269 301.468 160.322 303.181C160.372 304.837 159.093 306.093 157.446 305.965C155.819 305.826 154.212 305.505 152.657 305.01L151.601 309.355C149.931 308.765 148.262 308.167 146.595 307.561L147.78 302.871C142.624 299.856 140.441 295.255 141.609 290.944C142.896 286.183 147.128 285.124 152.802 285.246C156.73 285.321 158.577 284.664 159.025 282.783C159.495 280.799 157.865 279.051 155.117 278.059C153.36 277.427 151.512 277.085 149.645 277.046C147.973 277.008 146.566 275.453 146.605 273.701C146.605 273.638 146.605 273.574 146.605 273.511C146.631 271.921 147.821 270.739 149.321 270.795C151.349 270.892 153.357 271.251 155.293 271.864C155.685 270.301 156.076 268.737 156.465 267.172C158.013 267.741 159.561 268.298 161.108 268.843Z" fill="#32C385"/>
<path d="M217.693 150.814C216.275 150.349 214.889 149.797 213.54 149.159C212.02 148.428 210.05 147.574 208.805 147.384C206.185 146.979 201.686 147.248 199.199 149.933C196.104 153.278 190.601 150.541 191.7 168.055C192.954 187.882 204.026 185.705 204.294 185.369C204.561 185.032 214.168 172.684 214.168 172.684C214.168 172.684 217.527 180 217.527 179.731C217.527 179.462 234.697 156.514 217.693 150.814Z" fill="#0E2E35"/>
<path d="M229.363 281.524C183.465 299.641 132.827 307.924 80.1112 305.935C83.6094 328.345 87.1082 350.755 90.6077 373.165C151.558 375.465 210.109 365.889 263.175 344.941L229.363 281.524Z" fill="#32C385"/>
<path opacity="0.57" d="M85.628 318.688C87.925 332.681 90.2219 346.673 92.5189 360.665C98.056 360.829 103.289 364.931 104.24 369.98C154.947 370.35 203.789 362.364 248.929 346.316C246.539 341.51 248.586 336.215 253.434 334.352C246.499 321.122 239.562 307.892 232.624 294.662C228.165 296.375 222.559 293.767 220.171 288.964C180.532 303.055 137.642 310.07 93.1148 309.744C94.0613 314.768 90.7232 318.838 85.628 318.688Z" fill="#D0D2D3"/>
<path d="M195.245 330.48C190.135 318.042 176.493 310.293 164.479 312.348C152.474 314.436 145.449 325.752 149.061 338.448C152.673 351.145 166.779 360.25 180.287 357.911C193.795 355.572 200.348 342.893 195.245 330.48Z" fill="#50BFA5"/>
<path d="M168.808 315.912C169.287 317.382 169.767 318.852 170.247 320.323C175.421 320.438 179.227 323.23 180.553 327.072C181.884 330.946 180.626 333.704 175.966 336.332C172.663 338.286 171.378 339.4 171.828 340.834C172.204 342.049 173.528 343.134 176.44 342.703C177.743 342.519 179.009 342.133 180.192 341.559C181.457 340.937 183.181 341.504 184.006 342.808C184.805 344.072 184.45 345.564 183.196 346.141C181.938 346.699 180.62 347.107 179.268 347.356C179.673 348.625 180.083 349.894 180.498 351.163C179.012 351.387 177.521 351.605 176.025 351.817L174.736 347.705C169.594 347.476 165.889 344.805 164.76 340.99C163.512 336.778 166.108 334.228 170.297 332.003C173.196 330.456 174.237 329.194 173.7 327.548C173.131 325.818 171.142 325.132 168.684 325.484C167.131 325.711 165.628 326.204 164.241 326.94C163.007 327.594 161.268 326.965 160.484 325.598L160.397 325.448C159.685 324.207 160.01 322.803 161.128 322.236C162.66 321.475 164.29 320.93 165.972 320.616C165.539 319.246 165.104 317.875 164.669 316.503C166.049 316.318 167.428 316.121 168.808 315.912Z" fill="#3C8F7C"/>
<path d="M234.136 317.775C223.22 321.64 212.083 325.003 200.727 327.864L203.362 334.198C214.868 331.301 226.161 327.891 237.239 323.968L234.136 317.775Z" fill="#50BFA5"/>
<path d="M153.638 355.436V371.855C153.638 374.51 183.273 376.66 219.831 376.66C256.39 376.66 286.023 374.51 286.023 371.855V355.436H153.638Z" fill="#E59F39"/>
<path d="M201.54 376.476V355.436H153.638V371.855C153.638 374.048 173.879 375.899 201.54 376.476Z" fill="#EAB054"/>
<path d="M203.769 376.518C208.911 376.612 214.292 376.66 219.831 376.66C228.084 376.66 235.984 376.551 243.27 376.35V355.436H203.769V376.518Z" fill="#EAB054"/>
<path d="M245.923 376.273C269.507 375.538 286.023 373.843 286.023 371.855V355.436H245.923V376.273Z" fill="#EAB054"/>
<path d="M219.831 360.067C256.388 360.067 286.023 357.916 286.023 355.262C286.023 352.608 256.388 350.457 219.831 350.457C183.274 350.457 153.64 352.608 153.64 355.262C153.64 357.916 183.274 360.067 219.831 360.067Z" fill="#E59F39"/>
<path d="M274.338 355.262C274.338 357.103 249.934 358.595 219.831 358.595C189.728 358.595 165.312 357.103 165.312 355.262C165.312 353.421 189.716 351.931 219.831 351.931C249.946 351.931 274.338 353.423 274.338 355.262Z" fill="#F7CC7F"/>
<path d="M142.314 338.064V354.482C142.314 357.135 171.949 359.288 208.506 359.288C245.062 359.288 274.697 357.135 274.697 354.482V338.064H142.314Z" fill="#E59F39"/>
<path d="M190.216 359.101V338.064H142.314V354.482C142.314 356.675 162.555 358.526 190.216 359.101Z" fill="#EAB054"/>
<path d="M192.446 359.146C197.587 359.237 202.966 359.288 208.506 359.288C216.758 359.288 224.659 359.178 231.945 358.978V338.064H192.446V359.146Z" fill="#EAB054"/>
<path d="M234.598 358.899C258.181 358.164 274.697 356.469 274.697 354.482V338.064H234.598V358.899Z" fill="#EAB054"/>
<path d="M208.506 342.695C245.062 342.695 274.697 340.543 274.697 337.89C274.697 335.236 245.062 333.084 208.506 333.084C171.949 333.084 142.314 335.236 142.314 337.89C142.314 340.543 171.949 342.695 208.506 342.695Z" fill="#E59F39"/>
<path d="M263.013 337.89C263.013 339.73 238.609 341.221 208.506 341.221C178.402 341.221 153.998 339.73 153.998 337.89C153.998 336.049 178.402 334.556 208.506 334.556C238.609 334.556 263.013 336.049 263.013 337.89Z" fill="#F7CC7F"/>
<path d="M149.86 320.229V336.646C149.86 339.301 179.495 341.451 216.051 341.451C252.608 341.451 282.243 339.301 282.243 336.646V320.229H149.86Z" fill="#E59F39"/>
<path d="M197.76 341.267V320.229H149.86V336.646C149.86 338.839 170.099 340.69 197.76 341.267Z" fill="#EAB054"/>
<path d="M199.991 341.31C205.133 341.403 210.512 341.451 216.051 341.451C224.304 341.451 232.204 341.342 239.49 341.142V320.229H199.991V341.31Z" fill="#EAB054"/>
<path d="M242.143 341.065C265.727 340.33 282.243 338.635 282.243 336.646V320.229H242.143V341.065Z" fill="#EAB054"/>
<path d="M216.051 324.859C252.608 324.859 282.243 322.707 282.243 320.053C282.243 317.399 252.608 315.248 216.051 315.248C179.495 315.248 149.86 317.399 149.86 320.053C149.86 322.707 179.495 324.859 216.051 324.859Z" fill="#E59F39"/>
<path d="M270.558 320.053C270.558 321.894 246.154 323.386 216.051 323.386C185.948 323.386 161.544 321.894 161.544 320.053C161.544 318.213 185.948 316.722 216.051 316.722C246.154 316.722 270.558 318.215 270.558 320.053Z" fill="#F7CC7F"/>
<path d="M142.314 302.638V319.055C142.314 321.71 171.949 323.862 208.506 323.862C245.062 323.862 274.697 321.71 274.697 319.055V302.638H142.314Z" fill="#E59F39"/>
<path d="M190.216 323.676V302.638H142.314V319.055C142.314 321.25 162.555 323.099 190.216 323.676Z" fill="#EAB054"/>
<path d="M192.446 323.719C197.587 323.812 202.966 323.862 208.506 323.862C216.758 323.862 224.659 323.751 231.945 323.55V302.638H192.446V323.719Z" fill="#EAB054"/>
<path d="M234.598 323.474C258.181 322.738 274.697 321.044 274.697 319.055V302.638H234.598V323.474Z" fill="#EAB054"/>
<path d="M208.506 307.269C245.062 307.269 274.697 305.118 274.697 302.464C274.697 299.81 245.062 297.659 208.506 297.659C171.949 297.659 142.314 299.81 142.314 302.464C142.314 305.118 171.949 307.269 208.506 307.269Z" fill="#E59F39"/>
<path d="M263.013 302.464C263.013 304.303 238.609 305.795 208.506 305.795C178.402 305.795 153.998 304.303 153.998 302.464C153.998 300.625 178.402 299.131 208.506 299.131C238.609 299.131 263.013 300.623 263.013 302.464Z" fill="#F7CC7F"/>
<path d="M605.758 354.035V369.83C605.758 372.383 577.258 374.453 542.104 374.453C506.95 374.453 478.448 372.383 478.448 369.83V354.035H605.758Z" fill="#E59F39"/>
<path d="M559.692 374.265V354.035H605.758V369.83C605.758 371.932 586.293 373.712 559.692 374.265Z" fill="#EAB054"/>
<path d="M557.558 374.307C552.613 374.396 547.44 374.445 542.114 374.445C534.177 374.445 526.579 374.34 519.573 374.145V354.035H557.558V374.307Z" fill="#EAB054"/>
<path d="M517.011 374.072C494.331 373.363 478.448 371.727 478.448 369.82V354.025H517.011V374.072Z" fill="#EAB054"/>
<path d="M542.104 358.488C577.259 358.488 605.758 356.419 605.758 353.867C605.758 351.315 577.259 349.246 542.104 349.246C506.949 349.246 478.45 351.315 478.45 353.867C478.45 356.419 506.949 358.488 542.104 358.488Z" fill="#E59F39"/>
<path d="M489.686 353.867C489.686 355.637 513.154 357.07 542.104 357.07C571.054 357.07 594.522 355.637 594.522 353.867C594.522 352.097 571.052 350.663 542.104 350.663C513.156 350.663 489.686 352.097 489.686 353.867Z" fill="#F7CC7F"/>
<path d="M616.648 337.327V353.122C616.648 355.673 588.149 357.743 552.994 357.743C517.838 357.743 489.34 355.673 489.34 353.122V337.327H616.648Z" fill="#E59F39"/>
<path d="M570.582 357.558V337.327H616.648V353.122C616.648 355.225 597.183 357.007 570.582 357.558Z" fill="#EAB054"/>
<path d="M568.439 357.601C563.494 357.69 558.32 357.736 552.994 357.736C545.057 357.736 537.459 357.631 530.452 357.439V337.327H568.439V357.601Z" fill="#EAB054"/>
<path d="M527.902 357.364C505.223 356.657 489.34 355.021 489.34 353.111V337.316H527.902V357.364Z" fill="#EAB054"/>
<path d="M552.994 341.779C588.149 341.779 616.648 339.711 616.648 337.158C616.648 334.606 588.149 332.537 552.994 332.537C517.838 332.537 489.34 334.606 489.34 337.158C489.34 339.711 517.838 341.779 552.994 341.779Z" fill="#E59F39"/>
<path d="M552.994 340.362C581.943 340.362 605.411 338.928 605.411 337.158C605.411 335.389 581.943 333.955 552.994 333.955C524.044 333.955 500.576 335.389 500.576 337.158C500.576 338.928 524.044 340.362 552.994 340.362Z" fill="#F7CC7F"/>
<path d="M609.392 320.175V335.97C609.392 338.523 580.894 340.591 545.738 340.591C510.582 340.591 482.084 338.523 482.084 335.97V320.175H609.392Z" fill="#E59F39"/>
<path d="M563.326 340.403V320.171H609.392V335.966C609.392 338.074 589.927 339.854 563.326 340.403Z" fill="#EAB054"/>
<path d="M561.182 340.449C556.238 340.538 551.064 340.585 545.738 340.585C537.801 340.585 530.203 340.48 523.196 340.287V320.175H561.182V340.449Z" fill="#EAB054"/>
<path d="M520.647 340.212C497.967 339.505 482.084 337.869 482.084 335.96V320.165H520.647V340.212Z" fill="#EAB054"/>
<path d="M545.738 324.63C580.893 324.63 609.392 322.561 609.392 320.009C609.392 317.457 580.893 315.388 545.738 315.388C510.583 315.388 482.084 317.457 482.084 320.009C482.084 322.561 510.583 324.63 545.738 324.63Z" fill="#E59F39"/>
<path d="M545.738 323.212C574.687 323.212 598.156 321.778 598.156 320.009C598.156 318.239 574.687 316.805 545.738 316.805C516.788 316.805 493.32 318.239 493.32 320.009C493.32 321.778 516.788 323.212 545.738 323.212Z" fill="#F7CC7F"/>
<path d="M616.648 303.26V319.055C616.648 321.608 588.149 323.678 552.994 323.678C517.838 323.678 489.34 321.608 489.34 319.055V303.26H616.648Z" fill="#E59F39"/>
<path d="M570.582 323.49V303.26H616.648V319.055C616.648 321.165 597.183 322.937 570.582 323.49Z" fill="#EAB054"/>
<path d="M568.439 323.532C563.494 323.621 558.32 323.67 552.994 323.67C545.057 323.67 537.459 323.565 530.452 323.37V303.26H568.439V323.532Z" fill="#EAB054"/>
<path d="M527.902 323.297C505.223 322.589 489.34 320.952 489.34 319.045V303.25H527.902V323.297Z" fill="#EAB054"/>
<path d="M552.994 307.713C588.149 307.713 616.648 305.644 616.648 303.092C616.648 300.54 588.149 298.471 552.994 298.471C517.838 298.471 489.34 300.54 489.34 303.092C489.34 305.644 517.838 307.713 552.994 307.713Z" fill="#E59F39"/>
<path d="M552.994 306.295C581.943 306.295 605.411 304.861 605.411 303.092C605.411 301.323 581.943 299.888 552.994 299.888C524.044 299.888 500.576 301.323 500.576 303.092C500.576 304.861 524.044 306.295 552.994 306.295Z" fill="#F7CC7F"/>
<path d="M646.264 284.073L642.442 297.412C641.824 299.568 617.248 294.425 587.548 285.926C557.848 277.427 534.275 268.788 534.893 266.632L538.717 253.295L646.264 284.073Z" fill="#E59F39"/>
<path d="M602.45 290.027L607.349 272.936L646.262 284.073L642.44 297.412C641.931 299.194 625.048 295.99 602.45 290.027Z" fill="#EAB054"/>
<path d="M600.628 289.545C596.429 288.425 592.047 287.214 587.548 285.926C580.843 284.006 574.451 282.079 568.577 280.224L573.441 263.234L605.533 272.417L600.628 289.545Z" fill="#EAB054"/>
<path d="M566.441 279.545C547.452 273.47 534.431 268.242 534.893 266.632L538.717 253.295L571.293 262.61L566.441 279.545Z" fill="#EAB054"/>
<path d="M538.758 253.153C538.15 255.308 561.713 263.947 591.413 272.445C621.112 280.944 645.687 286.088 646.305 283.931C646.923 281.775 623.35 273.138 593.65 264.637C563.95 256.136 539.376 250.997 538.758 253.153Z" fill="#E59F39"/>
<path d="M548.249 255.869C547.821 257.363 567.3 264.25 591.755 271.259C616.21 278.267 636.384 282.72 636.814 281.226C637.243 279.732 617.762 272.845 593.308 265.836C568.853 258.827 548.679 254.375 548.249 255.869Z" fill="#F7CC7F"/>
<path d="M611.486 192.274L615.557 205.54C616.216 207.684 592.805 216.758 563.267 225.808C533.729 234.857 509.256 240.457 508.598 238.312L504.526 225.048L611.486 192.274Z" fill="#E59F39"/>
<path d="M578.002 221.13L572.785 204.132L611.485 192.274L615.557 205.54C616.1 207.311 600.207 213.818 578.002 221.13Z" fill="#EAB054"/>
<path d="M576.204 221.717C572.073 223.066 567.738 224.437 563.263 225.808C556.595 227.851 550.187 229.718 544.25 231.36L539.064 214.464L570.977 204.685L576.204 221.717Z" fill="#EAB054"/>
<path d="M542.094 231.954C522.858 237.198 509.09 239.912 508.6 238.312L504.528 225.048L536.925 215.126L542.094 231.954Z" fill="#EAB054"/>
<path d="M504.485 224.907C505.144 227.051 529.617 221.452 559.155 212.402C588.693 203.353 612.1 194.278 611.445 192.134C610.79 189.99 586.313 195.587 556.773 204.636C527.234 213.686 503.827 222.762 504.485 224.907Z" fill="#E59F39"/>
<path d="M513.926 222.015C514.382 223.501 534.469 218.666 558.79 211.212C583.111 203.758 602.458 196.512 602.002 195.026C601.546 193.539 581.459 198.375 557.138 205.827C532.817 213.279 513.468 220.523 513.926 222.015Z" fill="#F7CC7F"/>
<path d="M262.478 357.307C262.478 357.307 264.051 365.648 264.053 365.666C264.14 366.752 264.107 369.5 264.342 370.449C265.226 374.018 280.242 365.346 276.3 364.65C275.943 364.587 273.359 361.975 272.768 360.869C271.738 358.943 270.791 355.357 270.791 355.357L262.478 357.307Z" fill="#F7A491"/>
<path d="M275.556 364.129C275.556 364.129 271.681 365.089 269.707 365.286C267.733 365.482 265.204 362.42 263.789 363C262.231 363.637 261.383 373.351 261.383 373.351C261.383 373.351 286.152 374.479 292.005 372.863C294.326 372.223 283.264 367.08 275.556 364.129Z" fill="#D55531"/>
<path d="M297.014 356.927C297.014 356.927 298.588 365.267 298.588 365.286C298.678 366.373 298.643 369.119 298.878 370.069C299.762 373.637 314.502 365.537 310.562 364.84C310.206 364.777 307.899 361.6 307.307 360.488C306.278 358.563 305.331 354.976 305.331 354.976L297.014 356.927Z" fill="#F7A491"/>
<path d="M309.713 364.129C309.713 364.129 305.836 365.089 303.864 365.286C301.892 365.482 299.361 362.42 297.946 363C296.387 363.637 295.54 373.351 295.54 373.351C295.54 373.351 320.309 374.479 326.162 372.863C328.483 372.223 317.421 367.08 309.713 364.129Z" fill="#D55531"/>
<path d="M211.134 273.422L256.195 262.979C256.195 262.979 276.402 257.641 281.28 263.906C286.158 270.171 306.872 356.651 306.872 356.651C306.872 356.651 296.187 357.579 295.489 357.115L270.479 312.767C268.1 308.549 266.535 303.921 265.867 299.125L264.085 286.416L245.737 291.754C245.737 291.754 224.6 296.395 216.007 291.059C207.413 285.723 211.134 273.422 211.134 273.422Z" fill="#37393D"/>
<path d="M228.439 195.803C229.15 195.832 231.1 196.482 233.953 201.85C237.601 208.703 242.918 229.408 242.918 229.408L227.028 235.299L224.987 230.978L221.625 197.709C221.625 197.709 228.242 195.795 228.439 195.803Z" fill="#121417"/>
<path d="M207.435 192.818C211.979 192.818 223.22 194.145 228.439 195.805C228.439 195.805 232.271 228.61 224.993 253.538C223.372 259.119 226.343 276.67 226.343 276.67L179.262 276.062C179.262 276.062 184.839 233.62 182.731 226.766C180.624 219.911 180.583 196.02 180.583 196.02C180.583 196.02 180.907 195.969 191.163 194.198C196.544 193.325 201.984 192.864 207.435 192.818Z" fill="#121417"/>
<path d="M180.068 199.665C184.47 198.021 186.623 237.516 187.217 253.773C195.011 254.518 208.599 253.773 211.983 253.524C213.574 253.406 217.253 252.068 218.826 251.861C220.447 251.659 221.916 251.539 222.713 251.677C223.007 251.728 231.132 255.037 231.833 255.763C232.695 256.663 235.026 258.933 234.632 259.915C234.239 260.897 230.151 257.179 230.151 257.179L228.153 256.063C230.64 258.493 235.384 261.67 234.701 262.831C234.018 263.991 229.754 260.729 226.704 258.524C229.32 260.877 232.581 265.089 231.821 265.745C231.148 266.334 227.452 261.46 223.499 260.054C222.036 259.534 220.577 260.976 219.424 261.15C218.578 261.278 217.271 261.555 216.44 261.316L212.472 260.933C211.369 261.004 210.274 261.164 209.197 261.409C207.488 261.772 204.685 262.152 202.508 262.681C189.979 265.731 185.8 267.136 181.963 267.136C170.338 267.142 169.663 203.557 180.068 199.665Z" fill="#F7A491"/>
<path d="M171.714 236.751C170.889 220.099 171.009 199.576 180.384 196.075C184.083 194.692 190.603 203 189.43 237.089C184.434 237.5 177.079 237.832 171.714 236.751Z" fill="#121417"/>
<path d="M276.124 226.575L231.766 229.469C231.193 229.507 230.643 229.714 230.187 230.064C229.731 230.415 229.39 230.893 229.207 231.437L217.725 265.611L193.27 267.207C192.942 267.229 192.636 267.38 192.419 267.627C192.202 267.874 192.092 268.197 192.113 268.525C192.135 268.853 192.286 269.159 192.534 269.375C192.781 269.592 193.104 269.701 193.433 269.679L263.033 265.137C263.97 265.077 264.869 264.746 265.622 264.187C266.375 263.627 266.95 262.861 267.277 261.982L279.032 230.475C279.201 230.022 279.254 229.534 279.185 229.055C279.117 228.576 278.93 228.122 278.64 227.734C278.351 227.347 277.969 227.037 277.53 226.835C277.09 226.632 276.607 226.543 276.124 226.575Z" fill="#D55531"/>
<path d="M254.022 247.692C253.933 249.217 252.778 250.391 251.442 250.314C250.107 250.237 249.093 248.939 249.18 247.412C249.267 245.886 250.425 244.713 251.76 244.78C253.096 244.847 254.109 246.167 254.022 247.692Z" fill="white"/>
<path d="M179.282 274.981L228.386 266.51C228.386 266.51 249.616 263.27 254.495 269.548C259.373 275.825 273.546 357.038 273.546 357.038C273.546 357.038 262.861 357.967 262.166 357.502C261.625 357.143 248.69 330.065 242.879 317.864C241.038 313.992 239.742 309.883 239.028 305.656L237.162 294.601L230.982 296.725C220.131 300.49 208.561 301.727 197.158 300.342C192.387 299.751 187.934 298.722 185.172 297.017C176.566 291.675 179.282 274.981 179.282 274.981Z" fill="#37393D"/>
<path d="M209.288 186.833L210.245 193.92C210.245 193.92 212.385 204.126 209.636 206.094C206.888 208.063 197.922 193.628 197.922 193.628L198.868 175.677L209.288 186.833Z" fill="#F7A491"/>
<path d="M198.556 181.493C200.832 187.616 206.258 191.381 210.109 192.833L209.298 186.825L198.872 175.667L198.556 181.493Z" fill="#F47458"/>
<path d="M208.722 156.14C214.559 155.202 219.792 159.876 219.649 165.694C219.572 168.736 219.301 171.771 218.838 174.78C217.569 182.959 211.965 190.16 208.26 189.518C204.555 188.876 195.232 181.823 196.874 170.181C197.898 162.996 202.598 157.124 208.722 156.14Z" fill="#F7A491"/>
<path d="M199.456 171.57C199.142 173.368 197.697 174.62 196.213 174.365C194.73 174.11 193.802 172.443 194.116 170.645C194.43 168.847 195.875 167.595 197.346 167.852C198.818 168.109 199.768 169.772 199.456 171.57Z" fill="#F7A491"/>
<path d="M197.356 167.852C197.356 167.852 201.836 168.96 203.5 166.091C205.163 163.221 211.106 157.031 218.664 159.598C226.221 162.166 212.012 153.355 211.408 153.355C210.804 153.355 203.548 153.305 203.548 153.305C203.548 153.305 197.956 157.885 197.756 158.389C197.555 158.894 195.932 164.379 195.932 164.379L197.356 167.852Z" fill="#0E2E35"/>
<path d="M416.873 373.724H528.387V333.173H416.873V373.724Z" fill="#50BFA5"/>
<path opacity="0.57" d="M416.873 344.301H528.387V339.084H416.873V344.301Z" fill="#D0D2D3"/>
<path opacity="0.57" d="M416.873 354.49H528.387V349.274H416.873V354.49Z" fill="#D0D2D3"/>
<path opacity="0.57" d="M416.873 364.678H528.387V359.462H416.873V364.678Z" fill="#D0D2D3"/>
<path opacity="0.57" d="M416.873 373.726H528.387V368.509H416.873V373.726Z" fill="#D0D2D3"/>
<path d="M458.385 373.724H481.577V333.173H458.385V373.724Z" fill="#F7CC7F"/>
<path d="M527.035 373.724H543.875V333.173H527.035V373.724Z" fill="#32C385"/>
<path opacity="0.8" d="M297.847 68.6799C297.513 67.2391 296.895 65.8796 296.027 64.6817C295.159 63.4839 294.06 62.472 292.794 61.7057C291.528 60.9395 290.121 60.4346 288.657 60.2207C287.192 60.0068 285.7 60.0883 284.267 60.4604C282.597 56.8943 279.691 54.053 276.086 52.462C272.481 50.871 268.422 50.6378 264.659 51.8056C262.7 48.563 259.862 45.9405 256.475 44.2409C253.087 42.5413 249.287 41.834 245.514 42.2008C241.741 42.5676 238.149 43.9935 235.153 46.3137C232.157 48.634 229.879 51.7538 228.582 55.3129C226.485 54.1497 224.12 53.5537 221.721 53.5838C219.323 53.6138 216.973 54.2689 214.906 55.4843C212.838 56.6996 211.124 58.4331 209.932 60.5134C208.741 62.5936 208.114 64.9486 208.112 67.3454C208.112 67.795 208.134 68.2398 208.177 68.6799H297.847Z" fill="white"/>
<path opacity="0.8" d="M338.264 123.323C338.012 122.232 337.543 121.203 336.886 120.297C336.229 119.39 335.397 118.625 334.439 118.045C333.481 117.465 332.417 117.083 331.308 116.921C330.2 116.759 329.07 116.82 327.986 117.102C326.72 114.405 324.519 112.258 321.792 111.056C319.064 109.855 315.993 109.68 313.146 110.565C311.665 108.109 309.518 106.122 306.954 104.834C304.389 103.546 301.513 103.01 298.656 103.288C295.799 103.565 293.08 104.645 290.812 106.402C288.544 108.16 286.82 110.523 285.84 113.218C284.252 112.335 282.461 111.882 280.644 111.904C278.826 111.926 277.046 112.422 275.48 113.342C273.914 114.263 272.616 115.577 271.714 117.154C270.812 118.73 270.338 120.515 270.34 122.33C270.34 122.67 270.358 123.009 270.39 123.343L338.264 123.323Z" fill="white"/>
<path opacity="0.8" d="M149.26 115.648C149.48 114.697 149.888 113.799 150.461 113.009C151.034 112.218 151.76 111.55 152.596 111.045C153.431 110.539 154.36 110.206 155.327 110.065C156.293 109.923 157.279 109.977 158.224 110.223C159.326 107.869 161.244 105.995 163.622 104.945C166.001 103.895 168.68 103.741 171.163 104.512C172.455 102.371 174.327 100.64 176.563 99.5174C178.799 98.3951 181.307 97.9278 183.797 98.1697C186.288 98.4116 188.659 99.3527 190.637 100.884C192.614 102.416 194.118 104.475 194.973 106.825C196.357 106.056 197.919 105.661 199.502 105.68C201.086 105.699 202.638 106.131 204.003 106.933C205.368 107.735 206.5 108.88 207.287 110.253C208.073 111.627 208.487 113.182 208.487 114.765C208.487 115.063 208.473 115.356 208.445 115.648H149.26Z" fill="white"/>
<path d="M274.559 161.905L275.35 171.513L280.935 165.236L299 150.453L283.596 155.303C283.596 155.303 276.012 158.985 275.664 159.471C275.315 159.957 274.559 161.905 274.559 161.905Z" fill="#32C385"/>
<path d="M266.373 157.778L299 150.445L274.559 161.905L266.373 157.778Z" fill="#32C385"/>
<path d="M287.107 169.021L277.05 164.007L299 150.445L287.107 169.021Z" fill="#32C385"/>
<path d="M270.749 167.241C271.598 166.911 272.482 166.68 273.384 166.55L273.311 165.852C272.351 165.986 271.411 166.232 270.508 166.583L270.749 167.241Z" fill="#3C8F7C"/>
<path d="M254.648 224.03C255.943 222.852 257.127 221.559 258.185 220.166L258.747 220.587C257.663 222.016 256.449 223.342 255.121 224.548L254.648 224.03ZM260.903 215.695C261.248 214.972 261.564 214.219 261.845 213.455C262.164 212.593 262.453 211.689 262.683 210.772L263.361 210.946C263.122 211.877 262.836 212.796 262.504 213.698C262.216 214.482 261.896 215.255 261.537 215.997L260.903 215.695ZM263.74 200.333L264.442 200.317C264.49 202.102 264.433 203.887 264.269 205.665L263.57 205.598C263.73 203.848 263.788 202.09 263.743 200.333H263.74ZM262.739 189.803L263.434 189.704C263.73 191.759 263.939 193.438 264.097 194.989L263.398 195.06C263.244 193.521 263.035 191.851 262.741 189.805L262.739 189.803ZM261.953 184.514C261.679 182.751 261.59 180.964 261.687 179.182L262.389 179.227C262.296 180.959 262.383 182.696 262.648 184.411V184.451L261.951 184.546L261.953 184.514ZM262.837 173.905C263.521 172.211 264.561 170.683 265.887 169.426L266.371 169.936C265.117 171.124 264.133 172.568 263.487 174.17L262.837 173.905Z" fill="#32C385"/>
</svg>
